<?xml version="1.0" encoding="utf-8" ?><svg xmlns="http://www.w3.org/2000/svg" xmlns:xlink="http://www.w3.org/1999/xlink" width="1024" height="1024" viewBox="0 0 1024 1024"><path fill="#FEFEFE" d="M0 0L1024 0L1024 1024L0 1024L0 0Z"/><path fill="#020101" d="M166.589 150.903L167.19 150.941C186.14 185.51 216.143 202.138 252.717 213.128C255.698 214.024 274.387 218.92 276.424 218.991C257.714 203.945 241.514 177.941 233.409 155.604C232.797 154.211 232.119 152.766 231.62 151.339C264.997 177.13 315.504 186.258 356.505 194.708C438.788 214.564 480.837 230.296 547.818 283.477C537.013 267.584 526.278 251.103 513.005 237.069C523.672 243.35 533.445 248.217 544.067 255.078C578.962 278.075 609.359 307.257 633.758 341.187C632.219 337.11 630.102 333.138 628.012 329.305C649.728 347.606 672.388 392.52 674.89 420.618C677.297 408.021 678.165 399.085 676.204 386.025C688.629 401.601 692.479 435.167 690.259 454.604C688.857 466.944 684.992 478.878 678.891 489.696C685.966 483.301 690.24 479.511 695.161 471.204C694.682 490.784 691.126 500.042 676.916 514.483C687.906 528.271 695.988 531.748 710.092 541.403L744.827 565.117C797.824 601.957 851.035 643.869 895.515 690.811C903.534 699.274 914.102 711.634 920.259 721.403C897.989 708.989 874.884 698.137 851.111 688.923C801.727 669.746 747.276 655.856 695.147 646.273C671.775 641.976 645.711 637.95 621.914 637.656C612.093 637.623 602.284 638.306 592.562 639.699C610.592 653.665 624.846 658.81 646.417 664.622C638.912 665.836 633.29 666.565 625.613 666.559C639.155 673.061 665.396 689.749 676.954 699.467C683.15 703.596 689.309 707.8 695.708 711.621C698.181 713.098 704.836 715.466 706.24 717.145C705.689 717.502 705.585 717.648 704.978 717.835C696.43 720.474 686.284 723.57 677.404 724.879L685.139 733.077C698.375 743.77 709.729 755.072 724.934 763.06C727.971 764.655 736.072 767.358 738.007 769.15L736.568 769.723C728.714 772.385 724.224 773.332 716.191 774.713C729.041 787.451 741.09 796.069 758.131 802.705C727.901 808.142 700.989 802.022 675.732 784.43C669.967 780.354 664.25 776.21 658.582 772L657.91 773.675C675.509 791.254 689.136 801.948 712.103 812.106C709.473 812.696 706.621 813.399 703.986 813.863C697.499 815.289 688.876 815.781 682.23 816.163C656.849 817.622 630.271 813.928 606.456 804.667C615.435 815 621.486 819.274 632.485 827.033C597.936 827.341 555.869 817.377 525.571 800.57C534.286 811.238 540.614 816.813 551.639 824.449C549.019 824.062 546.083 823.865 543.433 823.639C511.07 820.889 481.083 808.213 450.698 797.81C440.929 794.465 429.632 789.847 420.705 784.799C428.34 796.877 431.095 799.013 441.628 808.174C440.671 808.077 439.713 807.972 438.757 807.859C422.788 805.943 406.498 799.054 394.583 788.052C391.033 784.774 387.105 779.6 384.056 775.702C362.605 799.494 337.985 808.23 306.124 806.378L303.274 806.325C303.099 805.601 305.441 803.9 306.426 803.042C311.311 798.787 318.273 788.667 320.332 782.8C296.753 798.861 274.115 802.964 246.206 802.231C257.358 793.731 262.503 787.407 270.322 776.213C252.572 786.166 234.338 791.108 214.195 792.612C219.515 788.391 226.659 780.799 230.785 775.683C210.05 778.1 190.701 774.777 170.881 768.932C188.262 759.246 203.32 741.072 213.088 723.97C200.145 722.281 191.524 721.149 178.905 717.661C196.987 710.765 211.55 698.24 221.998 682.114C208.071 681.303 192.601 678.157 181.444 669.279C180.712 668.953 180.01 668.329 179.35 667.824L179.554 667.388C182.414 667.134 185.675 666.912 188.478 666.475C207.476 663.325 224.437 652.736 235.609 637.05L235.466 636.244C212.023 640.707 195.126 637.005 173.038 631.093C198.149 623.368 209.823 615.82 228.982 598.925C197.349 590.348 178.5 577.328 167.082 546.018C169.806 547.375 172.361 548.576 174.939 550.207C201.386 559.345 218.028 554.81 239.743 538.672C222.034 538.513 200.914 529.296 189.552 515.576C187.164 514.061 180.694 507.014 178.465 504.626C194.79 508.48 207.994 506.677 223.85 502.893C185.158 496.559 148.158 463.146 136.626 425.885L136.078 423.601C136.737 423.458 145.731 428.397 147.728 429.29C151.056 430.773 154.48 432.03 157.976 433.054C168.85 436.236 183.279 437.321 194.629 436.227C182.654 430.043 172.034 424.1 161.89 415.141C133.557 390.115 117.33 359.133 114.971 321.27L114.86 320.197C116.569 320.838 118.874 323.583 120.415 324.962C135.031 338.045 157.76 350.62 176.929 355.19C170.67 349.082 163.047 341.038 157.479 334.3C135.746 308.176 123.304 275.575 122.105 241.614C121.681 230.003 122.567 218.93 123.635 207.388C137.857 241.212 166.47 261.911 198.708 276.723C173.853 248.91 148.375 186.026 166.589 150.903Z"/><path fill="#C90C0B" d="M233.409 155.604C232.797 154.211 232.119 152.766 231.62 151.339C264.997 177.13 315.504 186.258 356.505 194.708L356.427 195.581C360.3 198.722 370.108 204.472 374.76 207.428C393.458 219.441 412.488 230.929 431.828 241.879C434.411 243.34 446.43 250.208 448.486 250.918L448.078 251.863C443.932 249.526 433.423 246.08 428.625 244.391C416.061 239.941 403.453 235.619 390.801 231.425C344.497 215.943 292.545 198.958 251.558 171.619C247.632 169 243.778 165.128 240.294 161.925C238.415 160.197 235.806 155.997 233.409 155.604Z"/><path fill="#C90C0B" d="M166.589 150.903L167.19 150.941C186.14 185.51 216.143 202.138 252.717 213.128C255.698 214.024 274.387 218.92 276.424 218.991C277.29 219.39 281.383 222.685 282.325 223.366C293.956 231.773 306.886 237.654 320.296 242.565C277.999 240.23 231.598 235.814 197.805 207.224C186.357 197.539 176.593 184.2 171.446 170.077C169.246 164.043 168.242 157.188 166.589 150.903Z"/><path fill="#C90C0B" d="M599.51 764.362C610.635 764.642 621.664 767.562 632.609 769.249C633.514 769.389 634.662 768.956 635.498 768.663C646.185 774.093 650.382 776.355 659.625 784.316C658.605 779.43 657.734 776.18 655.727 771.546L657.91 773.675C675.509 791.254 689.136 801.948 712.103 812.106C709.473 812.696 706.621 813.399 703.986 813.863L703.745 812.805C696.287 811.31 688.526 809.786 681.197 808.559C658.377 804.739 609.383 786.17 599.51 764.362Z"/><path fill="#A00908" d="M570.913 749.609C579.922 753.456 587.035 754.476 596.557 756.275C610.717 758.951 622.655 761.851 635.498 768.663C634.662 768.956 633.514 769.389 632.609 769.249C621.664 767.562 610.635 764.642 599.51 764.362C609.383 786.17 658.377 804.739 681.197 808.559C688.526 809.786 696.287 811.31 703.745 812.805C673.564 815.846 641.813 810.941 615.322 795.752C604.418 789.5 590.617 779.264 583.712 768.59C587.911 770.436 589.906 771.049 594.371 772.251C590.212 766.475 577.21 756.236 570.913 749.609Z"/><path fill="#C90C0B" d="M114.971 321.27L114.86 320.197C116.569 320.838 118.874 323.583 120.415 324.962C135.031 338.045 157.76 350.62 176.929 355.19C178.308 356.085 180.952 358.477 182.299 359.655C197.115 372.608 213.219 381.275 231.586 388.323C230.65 388.239 229.715 388.139 228.783 388.025C195.212 383.816 154.996 371.593 131.844 345.856C128.419 342.07 125.356 337.973 122.694 333.617C120.227 329.506 118 324.969 114.971 321.27Z"/><path fill="#C90C0B" d="M235.466 636.244C248.314 633.367 257.441 630.443 268.291 622.715C255.859 652.172 229.842 672.45 195.928 670.728C191.256 670.491 186.111 669.025 181.444 669.279C180.712 668.953 180.01 668.329 179.35 667.824L179.554 667.388C182.414 667.134 185.675 666.912 188.478 666.475C207.476 663.325 224.437 652.736 235.609 637.05L235.466 636.244Z"/><path fill="#C90C0B" d="M320.332 782.8C324.315 778.898 327.236 772.818 330.283 767.992C335.397 759.892 340.536 754.907 348.049 749.125C344.441 763.807 342.559 769.349 334.469 782.61C342.711 777.908 352.283 772.601 360.177 767.473C349.108 784.275 336.455 794.117 317.435 801.857C315.553 802.624 306.384 805.009 306.124 806.378L303.274 806.325C303.099 805.601 305.441 803.9 306.426 803.042C311.311 798.787 318.273 788.667 320.332 782.8Z"/><path fill="#C90C0B" d="M136.626 425.885L136.078 423.601C136.737 423.458 145.731 428.397 147.728 429.29C151.056 430.773 154.48 432.03 157.976 433.054C168.85 436.236 183.279 437.321 194.629 436.227C204.748 440.481 213.084 443.283 223.548 446.494C196.491 452.993 170.099 452.993 147.111 434.928C144.262 432.688 139.289 425.625 136.626 425.885Z"/><path fill="#C90C0B" d="M189.552 515.576C216.747 533.132 243.552 535.882 272.81 521.661C263.578 531.493 258.94 533.43 246.699 538.391C243.769 539.578 238.119 545.369 235.033 547.014C226.089 552.939 214.375 556.127 203.769 556.557C196.143 556.865 180.821 555.299 174.939 550.207C201.386 559.345 218.028 554.81 239.743 538.672C222.034 538.513 200.914 529.296 189.552 515.576Z"/><path fill="#C90C0B" d="M630.117 677.315C635.954 679.221 640.024 680.683 645.422 683.244C650.773 685.783 672.677 699.448 676.954 699.467C683.15 703.596 689.309 707.8 695.708 711.621C698.181 713.098 704.836 715.466 706.24 717.145C705.689 717.502 705.585 717.648 704.978 717.835C702.329 716.583 688.966 714.001 684.971 712.718C662.475 705.49 646.109 694.171 630.117 677.315Z"/><path fill="#C90C0B" d="M685.139 733.077C698.375 743.77 709.729 755.072 724.934 763.06C727.971 764.655 736.072 767.358 738.007 769.15L736.568 769.723C734.933 768.812 716.027 767.727 712.139 767.107C711.777 766.492 711.407 765.713 710.695 765.382C699.656 760.249 686.488 758.191 679.962 747.07C683.308 747.208 686.021 746.801 689.336 746.411C692.611 748.26 694.49 749.233 697.944 750.687C694.143 744.84 686.619 739.199 685.139 733.077Z"/><path fill="#A00908" d="M646.767 735.669C656.486 739.544 666.651 740.753 676.809 743.095C681.069 744.077 685.323 744.615 689.336 746.411C686.021 746.801 683.308 747.208 679.962 747.07C686.488 758.191 699.656 760.249 710.695 765.382C711.407 765.713 711.777 766.492 712.139 767.107C689.145 764.934 664.377 750.075 646.767 735.669Z"/><path fill="#F7E8E3" d="M655.727 771.546L652.271 766.75L658.582 772L657.91 773.675L655.727 771.546Z"/><path fill="#511E1B" d="M448.486 250.918C451.433 252.299 452.476 252.871 455.181 254.668C452.628 253.792 450.486 253.131 448.078 251.863L448.486 250.918Z"/><path fill="#FEFEFE" d="M374.532 444.498C391.01 438.417 407.689 437.524 424.946 440.774C424.098 472.132 437.841 491.689 456.059 515.166C454.282 511.057 453.399 508.824 452.166 504.55L452.68 505.249C485.922 550.054 559.482 564.086 605.06 530.032C628.576 537.905 639.866 533.362 662.175 531.831C667.674 532.137 671.451 534.183 676.44 536.34C686.247 543.778 696.121 549.072 706.398 555.762C745.128 580.973 783.645 606.685 819.841 635.467C832.37 645.43 845.685 655.105 857.127 666.213C841.205 656.193 822.591 640.137 806.036 628.939L805.253 629.777C810.254 633.998 816.075 637.844 821.305 641.864C826.589 645.926 831.495 650.155 836.551 654.502C829.909 651.208 818.869 642.899 811.973 638.572C793.043 626.692 774.035 613.936 754.292 603.458L754.867 603.825C755.192 605.046 801.215 634.293 807.286 638.768C793.848 633.956 778.409 625.834 764.973 619.983C716.789 598.997 665.322 580.06 625.214 545.272C612.4 557.31 592.764 562.749 575.884 566.491C543.949 573.57 510.991 572.367 480.102 584.535C488.868 584.193 497.641 584.045 506.413 584.09C478.437 590.978 449.601 602.512 454.773 636.572C458.853 663.444 473.561 682.239 494.281 698.614C466.64 689.083 445.936 677.725 430.375 651.587C435.803 668.382 435.285 670.633 445.718 686.976C435.562 678.38 428.34 673.092 418.957 663.036C402.525 645.427 382.868 614.485 378.16 591.138C377.629 602.99 377.891 607.224 380.146 618.568C361.906 591.394 347.437 560.646 367.367 529.777C355.173 539.272 348.174 547.715 342.833 562.225C328.277 522.015 346.514 476.47 391.717 469.893C370.624 466.809 351.892 467.921 333.239 478.462C338.45 473.121 344.31 468.454 350.682 464.57C368.525 453.914 388.18 451.266 408.278 456.285C397.067 448.571 387.716 446.492 374.532 444.498Z"/><path fill="#242323" d="M805.253 629.777C800.875 626.529 797.675 624.059 793.533 620.454C795.312 620.585 803.975 627.358 806.036 628.939L805.253 629.777Z"/><path fill="#020101" d="M656.541 552.971C671.851 553.796 676.472 559.159 686.932 569.682C674.651 567.702 664.31 562.662 656.541 552.971Z"/><defs><linearGradient id="gradient_0" gradientUnits="userSpaceOnUse" x1="486.27383" y1="310.85641" x2="635.10577" y2="472.82187"><stop offset="0" stop-color="#3A3A3A"/><stop offset="1" stop-color="#6F6E6E"/></linearGradient></defs><path fill="url(#gradient_0)" d="M525.97 334.16L526.136 333.521C521.278 328.502 509.563 321.392 503.412 317.648C493.339 311.516 506.81 306.969 497.839 301.785C501.607 301.465 519.923 311.597 524.099 313.796C527.737 315.713 532.429 319.455 536.542 320.221C543.599 323.589 555.905 333.356 562.341 338.347L562.696 336.835C565.27 339.034 567.294 341.058 570.342 342.496C568.62 337.616 553.594 318.246 549.834 313.475C585.877 339.384 626.377 391.231 633.068 436.273C633.57 439.649 635.942 454.315 636.927 456.317C637.065 454.651 637.226 452.988 637.409 451.327C638.285 456.314 640.352 466.843 640.114 471.473L639.583 472.096C637.319 470.937 634.973 461.677 632.693 458.364C626.119 448.812 613.97 426.839 599.983 430.026C596.198 431.439 589.46 434.199 587.559 438.185C587.915 440.62 588.632 442.403 589.891 444.516C597.125 456.655 606.318 467.526 613.863 479.429C615.521 482.045 620.506 492.411 622.242 493.82C622.584 494.098 622.864 494.239 623.248 494.476C626.048 496.203 639.701 503.953 642.504 503.271C642.856 503.186 643.433 502.948 643.785 502.809L644.286 504.176C640.519 505.066 622.67 495.433 618.452 492.598C610.867 487.5 593.549 475.554 587.978 469.111C581.066 463.862 557.023 440.446 552.314 433.926C548.013 429.278 543.808 424.543 539.701 419.723C544.621 423.418 551.846 427.056 556.032 430.78L559.243 432.375L559.225 432.057C552.733 425.553 547.047 419.695 540.057 413.719C534.876 411.921 523.16 402.644 517.288 400.196C515.806 399.579 514.297 399.018 513.52 397.77C515.74 397.76 530.938 408.137 532.664 408.381C517.433 396.222 502.793 388.311 484.676 381.175C482.1 380.16 480.762 378.984 478.752 378.213C474.145 376.443 465.643 375.393 461.615 372.9L461.512 372.281C463.865 370.493 470.777 372.422 473.447 373.408C477.998 376.146 491.752 375.441 494.919 376.97C500.919 379.866 522.284 385.023 525.912 388.235L526.971 388.135C525.219 384.586 508.544 375.122 504.075 372.824C498.753 370.088 491.239 367.25 485.556 364.693C482.429 363.714 474.61 360.002 471.053 358.588C460.852 354.534 450.599 350.553 440.002 347.608C449.838 347.072 481 351.992 490.04 355.14C511.826 360.284 535.374 371.247 555.247 381.293C558.04 382.705 567.907 389.03 569.288 389.349C568.138 387.759 563.982 385.219 562.364 383.798C559.886 381.621 552.894 374.698 552.368 371.779C554.655 371.453 561.534 376.814 564.282 378.232C558.31 370.032 550.598 362.149 545.32 353.829C539.445 344.569 533.638 341.254 525.97 334.16Z"/><path fill="#242323" d="M561.379 400.459C567.933 403.381 577.543 407.519 584.131 411.182C603.678 422.048 623.449 439.527 635.077 458.751C635.931 460.162 637.89 466.688 638.445 468.512L638.694 468.5C638.121 464.848 636.766 459.802 636.927 456.317C637.065 454.651 637.226 452.988 637.409 451.327C638.285 456.314 640.352 466.843 640.114 471.473L639.583 472.096C637.319 470.937 634.973 461.677 632.693 458.364C626.119 448.812 613.97 426.839 599.983 430.026C596.198 431.439 589.46 434.199 587.559 438.185C587.915 440.62 588.632 442.403 589.891 444.516C597.125 456.655 606.318 467.526 613.863 479.429C615.521 482.045 620.506 492.411 622.242 493.82C622.584 494.098 622.864 494.239 623.248 494.476C626.048 496.203 639.701 503.953 642.504 503.271C642.856 503.186 643.433 502.948 643.785 502.809L644.286 504.176C640.519 505.066 622.67 495.433 618.452 492.598C610.867 487.5 593.549 475.554 587.978 469.111C594.649 472.41 610.366 488.306 617.58 488.973C617.577 488.661 617.575 488.348 617.573 488.036C608.755 475.367 588.735 444.687 581.77 433.772C574.84 422.75 568.042 411.644 561.379 400.459Z"/><path fill="#242323" d="M540.057 413.719C534.876 411.921 523.16 402.644 517.288 400.196C515.806 399.579 514.297 399.018 513.52 397.77C515.74 397.76 530.938 408.137 532.664 408.381C517.433 396.222 502.793 388.311 484.676 381.175C482.1 380.16 480.762 378.984 478.752 378.213C474.145 376.443 465.643 375.393 461.615 372.9L461.512 372.281C463.865 370.493 470.777 372.422 473.447 373.408C477.998 376.146 491.752 375.441 494.919 376.97C500.919 379.866 522.284 385.023 525.912 388.235C511.56 384.851 501.078 379.496 484.235 376.502C483.303 377.276 482.298 377.993 481.563 378.921C499.019 385.828 513.664 392.762 528.743 404.081C532.279 406.735 537.538 410.061 540.057 413.719Z"/><path fill="#444343" d="M475.828 375.954C478.971 376.005 481.113 376.171 484.235 376.502C483.303 377.276 482.298 377.993 481.563 378.921L475.828 375.954Z"/><path fill="#242323" d="M440.002 347.608C449.838 347.072 481 351.992 490.04 355.14C486.733 355.5 474.21 352.336 469.535 351.833L467.113 355.967C472.262 358.046 481.484 361.288 485.556 364.693C482.429 363.714 474.61 360.002 471.053 358.588C460.852 354.534 450.599 350.553 440.002 347.608Z"/><path fill="#8C8D8D" d="M539.701 419.723C544.621 423.418 551.846 427.056 556.032 430.78L555.407 431.07L555.051 430.791C552.674 428.954 552.548 428.914 549.593 428.788C550.51 431.659 552.144 430.857 552.314 433.926C548.013 429.278 543.808 424.543 539.701 419.723Z"/><path fill="#242323" d="M562.696 336.835C565.27 339.034 567.294 341.058 570.342 342.496L573.298 346.633C569.598 343.935 565.945 341.173 562.341 338.347L562.696 336.835Z"/><defs><linearGradient id="gradient_1" gradientUnits="userSpaceOnUse" x1="530.3219" y1="456.37955" x2="506.7269" y2="513.13934"><stop offset="0" stop-color="#8E0807"/><stop offset="1" stop-color="#BB1110"/></linearGradient></defs><path fill="url(#gradient_1)" d="M474.361 434.526C495.469 433.715 528.353 473.812 544.713 487.246C557.845 498.028 562.522 501.742 577.847 510.075C573.316 514.685 571.184 516.135 565.358 518.596C521.902 535.033 455.466 497.315 466.321 445.766C467.327 440.989 470.113 436.948 474.361 434.526Z"/><path fill="#C90C0B" d="M479.584 442.958C492.487 444.073 500.808 454.202 509.281 462.838L535.603 490.186C540.639 495.322 550.447 503.464 554.085 508.762C550.449 511.348 548.783 511.728 544.591 512.832C518.609 516.508 494.557 504.167 479.624 482.78C472.127 472.043 466.166 451.711 479.584 442.958Z"/><path fill="#FEFEFE" d="M493.206 458.542C508.135 457.393 513.911 476.2 523.87 485.207L524.432 485.71L519.132 486.855C516.84 487.131 514.53 487.235 512.222 487.166C496.78 486.614 478.09 471.188 493.206 458.542Z"/><defs><linearGradient id="gradient_2" gradientUnits="userSpaceOnUse" x1="463.05103" y1="327.31888" x2="642.0415" y2="338.6293"><stop offset="0" stop-color="#1A191A"/><stop offset="1" stop-color="#333"/></linearGradient></defs><path fill="url(#gradient_2)" d="M562.696 336.835C542.026 318.019 522.206 298.561 501.703 279.539L480.442 259.996C477.517 257.31 471.461 252.049 469.099 249.184L469.18 248.842C474.009 251.164 483.274 256.854 488.235 259.908C514.985 276.37 546.189 297.389 568.893 318.948C574.58 324.37 580.068 329.996 585.349 335.814C588.811 339.683 609.34 365.356 611.385 365.886C604.321 355.077 592.218 338.415 586.874 327.661C590.974 330.728 592.961 332.591 596.493 336.358C591.264 324.276 586.956 314.958 579.096 304.164C604.029 327.135 629.382 355.279 640.887 387.838C642.903 389.481 644.714 392.141 644.853 394.788L644.045 393.121C646.698 403.509 653.803 428.358 653.559 437.91L652.869 438.027C649.814 435.025 643.167 416.176 639.136 411.537C638.52 410.827 638.544 410.721 638.389 409.834C636.357 413.53 628.755 414.524 630.094 419.027C633.302 429.815 635.195 440.353 637.409 451.327C637.226 452.988 637.065 454.651 636.927 456.317C635.942 454.315 633.57 439.649 633.068 436.273C626.377 391.231 585.877 339.384 549.834 313.475C553.594 318.246 568.62 337.616 570.342 342.496C567.294 341.058 565.27 339.034 562.696 336.835Z"/><path fill="#C90C0B" d="M579.096 304.164C604.029 327.135 629.382 355.279 640.887 387.838C645.223 404.266 651.724 420.607 652.816 438.002C643.778 415.017 626.075 386.309 611.385 365.886C604.321 355.077 592.218 338.415 586.874 327.661C590.974 330.728 592.961 332.591 596.493 336.358C591.264 324.276 586.956 314.958 579.096 304.164Z"/><path fill="#C90C0B" d="M415.617 388.707C431.846 386.593 458.385 390.381 472.983 398.088C498.627 411.626 512.689 431.6 521.493 458.385C517.132 452.302 506.555 442.107 500.783 436.884C498.269 434.598 495.669 432.408 492.99 430.319C457.721 402.398 417.991 392.406 373.711 397.543C387.277 392.937 401.346 389.97 415.617 388.707Z"/><path fill="#C90C0B" d="M539.332 756.361C549.954 762.528 563.933 780.377 572.082 789.833C580.933 800.106 587.864 807.334 599.154 815.38C577.546 812.475 555.782 806.293 536.779 795.468C520.843 786.074 512.895 778.501 502.897 763.597C520.843 771.905 540.081 782.627 558.007 791.724C547.48 778.321 543.48 772.976 539.332 756.361Z"/><path fill="#C90C0B" d="M341.678 587.839C343.931 594.107 343.542 601.283 346.879 608.27C353.209 621.519 362.438 628.302 368.675 641.932C376.531 659.1 388.509 674.623 400.445 689.134C397.358 687.987 393.411 685.438 390.39 683.891C353.726 665.114 338.535 628.328 341.678 587.839Z"/><path fill="#242323" d="M525.97 334.16C525.806 334.115 512.375 324.436 510.866 323.377C499.068 315.103 487.308 309.2 474.019 303.552C453.388 294.907 432.252 287.522 410.727 281.437C403.01 279.277 395.278 277.173 387.531 275.125C384.738 274.412 377.582 272.943 375.316 271.959C377.621 271.774 394.601 273.705 397.333 274.002C439.989 278.632 500.828 295.88 536.542 320.221C532.429 319.455 527.737 315.713 524.099 313.796C519.923 311.597 501.607 301.465 497.839 301.785C506.81 306.969 493.339 311.516 503.412 317.648C509.563 321.392 521.278 328.502 526.136 333.521L525.97 334.16Z"/><path fill="#242323" d="M225.778 337.71C242.172 342.914 258.644 344.201 275.818 345.133C277.365 344.948 282.677 345.749 284.341 346.071C302.042 349.488 320.885 357.442 335.214 368.358C320.417 363.492 305.696 358.724 290.587 354.892C285.922 353.709 278.502 351.534 273.88 350.999C287.422 357.003 296.611 361.637 309.295 369.059C295.955 365.585 282.578 363.656 269.497 358.975C253.66 353.309 236.167 347.763 221.833 338.691C223.64 338.608 224.075 338.531 225.896 338.926L225.778 337.71Z"/><path fill="#444343" d="M225.778 337.71C242.172 342.914 258.644 344.201 275.818 345.133C273.693 345.849 268.114 346.35 265.724 346.521C249.81 347.66 240.444 344.062 225.896 338.926L225.778 337.71Z"/><path fill="#242323" d="M444.033 752.08C450.404 755.109 458.783 760.958 463.591 766.087C475.439 777.024 484.732 788.11 494.811 800.661C484.87 796.538 475.222 792.364 465.99 786.768C464.268 786.319 460.628 784.012 459.045 782.998C447.657 775.706 437.137 765.922 430.981 753.736C436.765 756.3 441.401 758.236 447.35 760.371C445.92 757.248 445.116 755.328 444.033 752.08Z"/><path fill="#5D3331" d="M465.99 786.768C469.033 784.906 472.214 787.106 474.47 786.333C473.618 783.028 459.702 770.212 463.591 766.087C475.439 777.024 484.732 788.11 494.811 800.661C484.87 796.538 475.222 792.364 465.99 786.768Z"/><path fill="#242323" d="M612.023 746.272C588.524 741.33 562.681 719.26 554.405 696.646C560.863 700.603 569.835 707.97 576.302 712.458C579.185 714.459 595.116 725.473 596.594 727.06C605.053 731.931 626.382 745.64 633.188 752.127C626.066 750.428 619.006 748.475 612.023 746.272Z"/><path fill="#5D3331" d="M596.594 727.06C605.053 731.931 626.382 745.64 633.188 752.127C626.066 750.428 619.006 748.475 612.023 746.272C612.942 745.775 613.28 745.565 614.125 744.95C610.1 740.88 596.791 733.002 596.594 727.06Z"/><path fill="#242323" d="M269.859 583.132L270.149 583.77C265.761 590.692 262.373 595.787 256.85 601.834C242.457 617.589 219.372 626.482 198.219 627.094L197.805 626.918C203.137 625.147 205.746 623.146 210.579 620.755C227.369 612.447 239.445 598.431 255.187 588.851C259.426 586.272 265.13 584.573 269.859 583.132Z"/><path fill="#242323" d="M589.545 683.716C594.196 685.336 630.398 705.624 633.576 708.614C643.8 713.906 661.27 725.005 669.637 732.798C666.904 731.887 651.871 726.735 649.797 726.421C645.289 724.845 640.822 723.157 636.399 721.359C633.437 720.751 626.309 716.966 623.549 715.423C609.6 707.626 598.241 697.16 589.545 683.716Z"/><path fill="#5D3331" d="M633.576 708.614C643.8 713.906 661.27 725.005 669.637 732.798C666.904 731.887 651.871 726.735 649.797 726.421C648.793 723.748 647.308 722.908 644.877 721.402C642.09 718.85 633.88 712.216 633.576 708.614Z"/><path fill="#511E1B" d="M636.399 721.359C640.194 719.078 640.327 720.638 644.12 721.28L644.877 721.402C647.308 722.908 648.793 723.748 649.797 726.421C645.289 724.845 640.822 723.157 636.399 721.359Z"/><path fill="#C90C0B" d="M326.379 510.917C326.357 511.698 326.429 511.567 326.199 512.207C322.081 522.804 319.681 537.518 322.751 548.7C326.105 560.92 326.423 559.957 324.671 572.465C323.413 581.438 326.628 597.542 329.655 606.349L325.905 600.629C309.053 570.737 306.71 540.37 326.379 510.917Z"/><path fill="#242323" d="M236.205 751.778C245.228 746.979 266.612 738.608 276.673 734.214C274.588 736.413 272.793 738.586 270.762 740.801C251.376 761.935 226.384 765.612 199.429 766.85C214.264 760.063 219.652 756.386 231.812 744.936C232.39 748.39 231.663 750.754 231.397 754.212C232.777 753.591 235.145 752.692 236.205 751.778Z"/><path fill="#242323" d="M279.077 670.644L279.334 671.044C278.214 676.105 271.16 685.665 267.643 689.593C256.167 702.408 235.671 708.955 218.826 709.56C226.328 706.257 229.633 703.281 235.684 697.957C242.674 691.163 247.182 684.762 253.68 678.152C250.651 687.88 248.043 691.139 241.074 698.508C251.324 692.759 271.369 679.309 279.077 670.644Z"/><path fill="#242323" d="M181.085 558.361C189.532 560.27 197.295 562.97 206.145 562.951C215.157 562.932 221.399 561.736 230.518 562.744C225.437 565.874 222.194 566.871 216.5 568.809C222.849 569.478 228.392 570.148 234.689 571.168C238.008 571.643 241.334 572.071 244.666 572.452C220.023 581.099 200.518 574.12 181.085 558.361Z"/><path fill="#242323" d="M251.022 504.21L257.625 503.882C241.489 517.867 222.256 520.764 201.823 515.588C198.563 514.144 195.266 512.787 191.934 511.519C197.27 511.666 204.407 512.202 209.531 511.319C223.725 508.872 236.599 505.764 251.022 504.21Z"/><path fill="#242323" d="M231.812 744.936C233.447 742.529 247.14 727.627 249.307 725.552C247.059 736.116 244.326 741.573 237.159 750.017C236.385 750.928 236.361 750.654 236.205 751.778C235.145 752.692 232.777 753.591 231.397 754.212C231.663 750.754 232.39 748.39 231.812 744.936Z"/><path fill="#5D3331" d="M704.629 780.34C708.161 780.893 733.395 795.425 735.176 797.929C720.504 797.045 714.172 790.544 704.629 780.34Z"/><path fill="#242323" d="M397.148 773.344C400.547 776.108 407.611 784.482 410.686 788.03C414.216 792.101 415.955 793.195 419.322 796.513L419.822 797.011C409.181 794.127 398.965 784.442 397.148 773.344Z"/><path fill="#C90C0B" d="M662.175 531.831L662.716 531.247C659.105 529.91 640.71 528.714 640.484 528.489C642.568 527.415 660.871 526.739 664.42 528.278C668.814 530.184 673.189 532.515 676.44 536.34C671.451 534.183 667.674 532.137 662.175 531.831Z"/><path fill="#242323" d="M405.25 370.231C415.802 369.138 429.537 371.634 440.177 372.887C442.979 373.992 446.975 371.093 449.21 372.145C460.72 377.563 474.557 380.206 486.193 384.966L486.846 385.362C485.062 385.236 468.338 379.543 464.171 378.469C444.889 373.587 425.132 370.824 405.25 370.231Z"/><path fill="#242323" d="M221.833 338.691C219.481 337.89 215.705 335.446 213.6 334.097L213.938 333.783C218.092 334.472 221.866 336.156 225.778 337.71L225.896 338.926C224.075 338.531 223.64 338.608 221.833 338.691Z"/><path fill="#242323" d="M386.504 325.208C387.942 325.048 390.275 324.825 391.441 325.713C389.433 326.459 388.324 326.017 386.504 325.208Z"/></svg>